# xmcd
#
# Track frame offsets:
#	150
#	23425
#	41574
#	85745
#	96414
#	229562
#
# Disc length: 3662 seconds
#
# Revision: 1
# Processed by: cddbd v1.5.2PL0 Copyright (c) Steve Scherf et al.
# Submitted via: audiograbber 1.83.01
#
DISCID=380e4c06
DTITLE=Grateful Dead - 72-08-22 Berkeley Community Theatre, Berkeley CA
DYEAR=1900
DGENRE=
TTITLE0=Brown Eyed Women
TTITLE1=Mexicali Blues
TTITLE2=Truckin'
TTITLE3=Drums
TTITLE4=The Other One
TTITLE5=Stella Blue
EXTD=
EXTT0=
EXTT1=
EXTT2=
EXTT3=
EXTT4=
EXTT5=
PLAYORDER=
